<mxfile host="65bd71144e">
    <diagram id="zQSRPYVTZzxoFdpvGisa" name="Page-1">
        <mxGraphModel dx="997" dy="563" grid="1" gridSize="10" guides="1" tooltips="1" connect="1" arrows="1" fold="1" page="1" pageScale="1" pageWidth="1100" pageHeight="850" math="0" shadow="0">
            <root>
                <mxCell id="0"/>
                <mxCell id="1" parent="0"/>
                <mxCell id="8" value="" style="edgeStyle=none;html=1;fontFamily=Verdana;" edge="1" parent="1" source="2" target="7">
                    <mxGeometry relative="1" as="geometry"/>
                </mxCell>
                <mxCell id="2" value="&lt;b&gt;&lt;font color=&quot;#1218bf&quot; style=&quot;font-size: 30px;&quot;&gt;Hotel&lt;/font&gt;&lt;/b&gt;" style="whiteSpace=wrap;html=1;fontFamily=Verdana;" vertex="1" parent="1">
                    <mxGeometry x="60" y="445" width="345" height="30" as="geometry"/>
                </mxCell>
                <mxCell id="7" value="- HotelID (PK)&lt;br&gt;- HotelName&lt;br&gt;- Location" style="whiteSpace=wrap;html=1;fontFamily=Verdana;align=left;fontStyle=1;fontSize=28;fontColor=#326e9c;" vertex="1" parent="1">
                    <mxGeometry x="60" y="475" width="345" height="180" as="geometry"/>
                </mxCell>
                <mxCell id="9" value="" style="edgeStyle=none;html=1;fontFamily=Verdana;" edge="1" parent="1" source="10" target="11">
                    <mxGeometry relative="1" as="geometry"/>
                </mxCell>
                <mxCell id="10" value="&lt;font color=&quot;#ab9eff&quot; style=&quot;font-size: 25px;&quot;&gt;&lt;b&gt;Employee&lt;/b&gt;&lt;/font&gt;" style="whiteSpace=wrap;html=1;fontFamily=Verdana;" vertex="1" parent="1">
                    <mxGeometry x="540" y="180" width="345" height="30" as="geometry"/>
                </mxCell>
                <mxCell id="11" value="&lt;div style=&quot;&quot;&gt;&lt;font style=&quot;font-size: 28px;&quot;&gt;&lt;br&gt;&lt;/font&gt;&lt;/div&gt;&lt;div style=&quot;&quot;&gt;&lt;font style=&quot;font-size: 28px;&quot;&gt;- EmployeeID (PK)&lt;/font&gt;&lt;/div&gt;&lt;div style=&quot;&quot;&gt;&lt;font style=&quot;font-size: 28px;&quot;&gt;- Name&lt;/font&gt;&lt;/div&gt;&lt;div style=&quot;&quot;&gt;&lt;font style=&quot;font-size: 28px;&quot;&gt;- Address&lt;/font&gt;&lt;/div&gt;&lt;div style=&quot;&quot;&gt;&lt;font style=&quot;font-size: 28px;&quot;&gt;- Phone&lt;/font&gt;&lt;/div&gt;&lt;div style=&quot;&quot;&gt;&lt;font style=&quot;font-size: 28px;&quot;&gt;- HotelID (FK)&lt;/font&gt;&lt;/div&gt;&lt;div style=&quot;&quot;&gt;&lt;br&gt;&lt;/div&gt;" style="whiteSpace=wrap;html=1;fontFamily=Verdana;align=left;fontStyle=1;fontSize=28;fontColor=#326e9c;" vertex="1" parent="1">
                    <mxGeometry x="540" y="210" width="345" height="210" as="geometry"/>
                </mxCell>
                <mxCell id="12" value="" style="edgeStyle=none;html=1;fontFamily=Verdana;" edge="1" parent="1" source="13" target="14">
                    <mxGeometry relative="1" as="geometry"/>
                </mxCell>
                <mxCell id="13" value="&lt;font color=&quot;#ab9eff&quot;&gt;&lt;span style=&quot;font-size: 25px;&quot;&gt;&lt;b&gt;Reservation&lt;/b&gt;&lt;/span&gt;&lt;/font&gt;" style="whiteSpace=wrap;html=1;fontFamily=Verdana;" vertex="1" parent="1">
                    <mxGeometry x="541" y="700" width="345" height="30" as="geometry"/>
                </mxCell>
                <mxCell id="14" value="&lt;div style=&quot;font-size: 27px;&quot;&gt;&lt;font style=&quot;font-size: 27px;&quot;&gt;&lt;br&gt;&lt;/font&gt;&lt;/div&gt;&lt;div style=&quot;font-size: 27px;&quot;&gt;&lt;font style=&quot;font-size: 27px;&quot;&gt;- ReservationID (PK)&lt;/font&gt;&lt;/div&gt;&lt;div style=&quot;font-size: 27px;&quot;&gt;&lt;font style=&quot;font-size: 27px;&quot;&gt;- Date&lt;/font&gt;&lt;/div&gt;&lt;div style=&quot;font-size: 27px;&quot;&gt;&lt;font style=&quot;font-size: 27px;&quot;&gt;- HotelID (FK)&lt;/font&gt;&lt;/div&gt;&lt;div style=&quot;font-size: 27px;&quot;&gt;&lt;font style=&quot;font-size: 27px;&quot;&gt;- RoomNumber (FK)&lt;/font&gt;&lt;/div&gt;&lt;div style=&quot;font-size: 27px;&quot;&gt;&lt;font style=&quot;font-size: 27px;&quot;&gt;- CustomerID (FK)&lt;/font&gt;&lt;/div&gt;&lt;div style=&quot;font-size: 27px;&quot;&gt;&lt;br&gt;&lt;/div&gt;" style="whiteSpace=wrap;html=1;fontFamily=Verdana;align=left;fontStyle=1;fontSize=28;fontColor=#326e9c;" vertex="1" parent="1">
                    <mxGeometry x="541" y="730" width="345" height="180" as="geometry"/>
                </mxCell>
                <mxCell id="15" value="" style="edgeStyle=none;html=1;fontFamily=Verdana;" edge="1" parent="1" source="16" target="17">
                    <mxGeometry relative="1" as="geometry"/>
                </mxCell>
                <mxCell id="16" value="Customer" style="whiteSpace=wrap;html=1;fontFamily=Verdana;" vertex="1" parent="1">
                    <mxGeometry x="540" y="450" width="345" height="30" as="geometry"/>
                </mxCell>
                <mxCell id="17" value="&lt;div&gt;- CustomerID (PK)&lt;/div&gt;&lt;div&gt;- Name&lt;/div&gt;&lt;div&gt;- Address&lt;/div&gt;&lt;div&gt;- Phone&lt;/div&gt;&lt;div&gt;&lt;br&gt;&lt;/div&gt;" style="whiteSpace=wrap;html=1;fontFamily=Verdana;align=left;fontStyle=1;fontSize=28;fontColor=#326e9c;" vertex="1" parent="1">
                    <mxGeometry x="540" y="480" width="345" height="180" as="geometry"/>
                </mxCell>
                <mxCell id="18" value="&lt;font color=&quot;#ff9ed2&quot;&gt;Relational Model&lt;/font&gt;" style="text;html=1;align=center;verticalAlign=middle;resizable=0;points=[];autosize=1;strokeColor=none;fillColor=none;fontSize=27;fontFamily=Verdana;fontColor=#AB9EFF;" vertex="1" parent="1">
                    <mxGeometry x="325" y="80" width="250" height="50" as="geometry"/>
                </mxCell>
                <mxCell id="19" value="" style="edgeStyle=segmentEdgeStyle;endArrow=classic;html=1;curved=0;rounded=0;endSize=8;startSize=8;sourcePerimeterSpacing=0;targetPerimeterSpacing=0;fontFamily=Verdana;fontSize=27;fontColor=#AB9EFF;" edge="1" parent="1">
                    <mxGeometry width="100" relative="1" as="geometry">
                        <mxPoint x="297" y="537" as="sourcePoint"/>
                        <mxPoint x="522" y="497" as="targetPoint"/>
                        <Array as="points">
                            <mxPoint x="430" y="537"/>
                            <mxPoint x="430" y="497"/>
                        </Array>
                    </mxGeometry>
                </mxCell>
                <mxCell id="20" value="" style="edgeStyle=segmentEdgeStyle;endArrow=classic;html=1;curved=0;rounded=0;endSize=8;startSize=8;sourcePerimeterSpacing=0;targetPerimeterSpacing=0;fontFamily=Verdana;fontSize=27;fontColor=#AB9EFF;" edge="1" parent="1">
                    <mxGeometry width="100" relative="1" as="geometry">
                        <mxPoint x="430" y="490" as="sourcePoint"/>
                        <mxPoint x="529" y="250" as="targetPoint"/>
                        <Array as="points">
                            <mxPoint x="430" y="500"/>
                            <mxPoint x="430" y="250"/>
                        </Array>
                    </mxGeometry>
                </mxCell>
                <mxCell id="21" value="" style="edgeStyle=segmentEdgeStyle;endArrow=classic;html=1;curved=0;rounded=0;endSize=8;startSize=8;sourcePerimeterSpacing=0;targetPerimeterSpacing=0;fontFamily=Verdana;fontSize=27;fontColor=#AB9EFF;verticalAlign=bottom;" edge="1" parent="1">
                    <mxGeometry width="100" relative="1" as="geometry">
                        <mxPoint x="320" y="537" as="sourcePoint"/>
                        <mxPoint x="530" y="820" as="targetPoint"/>
                        <Array as="points">
                            <mxPoint x="430" y="537"/>
                            <mxPoint x="430" y="820"/>
                        </Array>
                    </mxGeometry>
                </mxCell>
                <mxCell id="24" value="" style="edgeStyle=none;html=1;fontFamily=Verdana;" edge="1" parent="1" source="25" target="26">
                    <mxGeometry relative="1" as="geometry"/>
                </mxCell>
                <mxCell id="25" value="&lt;font style=&quot;&quot;&gt;&lt;font color=&quot;#ab9eff&quot;&gt;&lt;span style=&quot;font-size: 25px;&quot;&gt;&lt;b&gt;Room&lt;/b&gt;&lt;/span&gt;&lt;/font&gt;&lt;br&gt;&lt;/font&gt;" style="whiteSpace=wrap;html=1;fontFamily=Verdana;" vertex="1" parent="1">
                    <mxGeometry x="561" y="990" width="345" height="30" as="geometry"/>
                </mxCell>
                <mxCell id="26" value="&lt;div style=&quot;font-size: 27px;&quot;&gt;&lt;div&gt;- RoomNumber (PK)&lt;/div&gt;&lt;div&gt;- Type&lt;/div&gt;&lt;div&gt;- Price&lt;/div&gt;&lt;div&gt;- HotelID (FK)&lt;/div&gt;&lt;div&gt;&lt;br&gt;&lt;/div&gt;&lt;/div&gt;" style="whiteSpace=wrap;html=1;fontFamily=Verdana;align=left;fontStyle=1;fontSize=28;fontColor=#326e9c;" vertex="1" parent="1">
                    <mxGeometry x="560" y="1020" width="345" height="180" as="geometry"/>
                </mxCell>
                <mxCell id="27" value="" style="edgeStyle=none;orthogonalLoop=1;jettySize=auto;html=1;endArrow=classic;startArrow=classic;endSize=8;startSize=8;fontFamily=Verdana;fontSize=27;fontColor=#ff9ed2;exitX=-0.013;exitY=0.129;exitDx=0;exitDy=0;exitPerimeter=0;" edge="1" parent="1">
                    <mxGeometry width="100" relative="1" as="geometry">
                        <mxPoint x="554.5150000000001" y="1043.22" as="sourcePoint"/>
                        <mxPoint x="540" y="850" as="targetPoint"/>
                        <Array as="points">
                            <mxPoint x="400" y="1043"/>
                            <mxPoint x="400" y="850"/>
                        </Array>
                    </mxGeometry>
                </mxCell>
                <mxCell id="28" value="" style="edgeStyle=none;orthogonalLoop=1;jettySize=auto;html=1;endArrow=classic;startArrow=classic;endSize=8;startSize=8;fontFamily=Verdana;fontSize=27;fontColor=#ff9ed2;entryX=1.007;entryY=0.076;entryDx=0;entryDy=0;entryPerimeter=0;" edge="1" parent="1" target="17">
                    <mxGeometry width="100" relative="1" as="geometry">
                        <mxPoint x="890" y="750" as="sourcePoint"/>
                        <mxPoint x="1020" y="536.78" as="targetPoint"/>
                        <Array as="points">
                            <mxPoint x="1060" y="750"/>
                            <mxPoint x="1070" y="650"/>
                            <mxPoint x="1070" y="570"/>
                            <mxPoint x="1070" y="490"/>
                        </Array>
                    </mxGeometry>
                </mxCell>
                <mxCell id="29" value="&lt;font style=&quot;font-size: 18px;&quot; color=&quot;#ff9ed2&quot;&gt;One to many&lt;/font&gt;" style="text;html=1;align=center;verticalAlign=middle;resizable=0;points=[];autosize=1;strokeColor=none;fillColor=none;fontSize=27;fontFamily=Verdana;fontColor=#AB9EFF;" vertex="1" parent="1">
                    <mxGeometry x="300" y="490" width="140" height="50" as="geometry"/>
                </mxCell>
                <mxCell id="30" value="Text" style="text;html=1;align=center;verticalAlign=middle;resizable=0;points=[];autosize=1;strokeColor=none;fillColor=none;fontSize=18;fontFamily=Verdana;fontColor=#ff9ed2;" vertex="1" parent="1">
                    <mxGeometry x="170" y="220" width="60" height="40" as="geometry"/>
                </mxCell>
            </root>
        </mxGraphModel>
    </diagram>
</mxfile>